<svg xmlns="http://www.w3.org/2000/svg" viewBox="0 0 38 38"><path data-name="シェイプ 4" d="M18.99 3.42c5.08 0 5.68.02 7.68.11a10.463 10.463 0 0 1 3.53.65 5.928 5.928 0 0 1 2.18 1.42 5.8 5.8 0 0 1 1.42 2.19 10.336 10.336 0 0 1 .66 3.53c.09 2 .11 2.6.11 7.68s-.02 5.68-.11 7.68a10.394 10.394 0 0 1-.66 3.53 5.687 5.687 0 0 1-1.42 2.18 5.828 5.828 0 0 1-2.18 1.43 10.463 10.463 0 0 1-3.53.65c-2 .09-2.6.11-7.68.11s-5.67-.02-7.68-.11a10.388 10.388 0 0 1-3.52-.65 5.947 5.947 0 0 1-2.19-1.43 5.805 5.805 0 0 1-1.42-2.18 10.463 10.463 0 0 1-.65-3.53c-.1-2-.12-2.61-.12-7.68s.02-5.68.12-7.68a10.4 10.4 0 0 1 .65-3.53A5.923 5.923 0 0 1 5.6 5.6a6.05 6.05 0 0 1 2.19-1.42 10.388 10.388 0 0 1 3.52-.65c2.01-.09 2.61-.11 7.68-.11m0-3.43c-5.16 0-5.81.02-7.83.12a13.841 13.841 0 0 0-4.61.88 9.362 9.362 0 0 0-3.37 2.19A9.231 9.231 0 0 0 .99 6.55a14.126 14.126 0 0 0-.89 4.61C.01 13.19-.01 13.84-.01 19s.02 5.81.11 7.84a14.126 14.126 0 0 0 .89 4.61 9.231 9.231 0 0 0 2.19 3.37 9.5 9.5 0 0 0 3.37 2.19 13.841 13.841 0 0 0 4.61.88c2.02.09 2.67.12 7.83.12s5.81-.03 7.84-.12a13.9 13.9 0 0 0 4.61-.88A9.755 9.755 0 0 0 37 31.45a13.9 13.9 0 0 0 .88-4.61c.09-2.03.11-2.68.11-7.84s-.02-5.81-.11-7.84A13.9 13.9 0 0 0 37 6.55a9.392 9.392 0 0 0-2.2-3.37A9.242 9.242 0 0 0 31.44.99a13.9 13.9 0 0 0-4.61-.88c-2.03-.1-2.68-.12-7.84-.12zm0 9.25A9.76 9.76 0 1 0 28.75 19a9.752 9.752 0 0 0-9.76-9.76zm0 16.09A6.335 6.335 0 1 1 25.33 19a6.331 6.331 0 0 1-6.34 6.33zM31.42 8.85a2.28 2.28 0 1 1-2.28-2.28 2.279 2.279 0 0 1 2.28 2.28z" fill-rule="evenodd"/></svg>