<svg xmlns="http://www.w3.org/2000/svg" width="43" height="9" viewBox="0 0 43 9">
  <metadata><?xpacket begin="﻿" id="W5M0MpCehiHzreSzNTczkc9d"?>
<x:xmpmeta xmlns:x="adobe:ns:meta/" x:xmptk="Adobe XMP Core 5.6-c140 79.160451, 2017/05/06-01:08:21        ">
   <rdf:RDF xmlns:rdf="http://www.w3.org/1999/02/22-rdf-syntax-ns#">
      <rdf:Description rdf:about=""/>
   </rdf:RDF>
</x:xmpmeta>
                                                                                                    
                                                                                                    
                                                                                                    
                                                                                                    
                                                                                                    
                                                                                                    
                                                                                                    
                                                                                                    
                                                                                                    
                                                                                                    
                                                                                                    
                                                                                                    
                                                                                                    
                                                                                                    
                                                                                                    
                                                                                                    
                                                                                                    
                                                                                                    
                                                                                                    
                                                                                                    
                           
<?xpacket end="w"?></metadata>
<defs>
    <style>
      .cls-1 {
        fill: #fff;
        fill-rule: evenodd;
      }
    </style>
  </defs>
  <path id="NEWS" class="cls-1" d="M1.777,0.244H0.7v8.5H1.561V1.432H1.585L6.529,8.74h1.08v-8.5H6.745V7.48H6.721ZM13.623,4.7h4.116V3.928H13.623V1.012h4.4V0.244H12.759v8.5h5.412V7.972H13.623V4.7Zm9.3-4.452H22.011l2.508,8.5h1.008l2.136-7.3h0.024l2.136,7.3h1.008l2.508-8.5H32.427L30.351,7.552H30.327L28.2,0.244H27.171L25.047,7.552H25.023ZM42.279,1.06A2.535,2.535,0,0,0,41.355.334,3.271,3.271,0,0,0,39.879.028a3.566,3.566,0,0,0-.948.132,2.69,2.69,0,0,0-.876.42,2.225,2.225,0,0,0-.642.732,2.145,2.145,0,0,0-.246,1.056,2.158,2.158,0,0,0,.2.972,2.046,2.046,0,0,0,.522.666,2.8,2.8,0,0,0,.732.438q0.408,0.168.828,0.3t0.78,0.264a2.834,2.834,0,0,1,.66.33,1.551,1.551,0,0,1,.462.492,1.431,1.431,0,0,1,.174.738,1.421,1.421,0,0,1-.174.714,1.728,1.728,0,0,1-.444.516,1.853,1.853,0,0,1-.606.312,2.263,2.263,0,0,1-.66.1,2.189,2.189,0,0,1-1.17-.306A2.275,2.275,0,0,1,37.7,7.144L36.951,7.7a2.867,2.867,0,0,0,.528.552,2.98,2.98,0,0,0,.648.4,3.485,3.485,0,0,0,.732.234,3.852,3.852,0,0,0,.768.078,3.592,3.592,0,0,0,1-.144,2.619,2.619,0,0,0,.885-0.444,2.3,2.3,0,0,0,.63-0.762,2.333,2.333,0,0,0,.243-1.1,2.166,2.166,0,0,0-.227-1.05,2.119,2.119,0,0,0-.586-0.684,3.207,3.207,0,0,0-.808-0.438q-0.449-.168-0.891-0.312-0.359-.12-0.688-0.24A2.388,2.388,0,0,1,38.6,3.478a1.474,1.474,0,0,1-.413-0.45,1.308,1.308,0,0,1-.155-0.672,1.469,1.469,0,0,1,.162-0.708,1.511,1.511,0,0,1,.426-0.5A1.847,1.847,0,0,1,39.207.856a2.233,2.233,0,0,1,.636-0.1,2.164,2.164,0,0,1,1.044.234,2.077,2.077,0,0,1,.708.618Z"/>
</svg>
