<svg xmlns="http://www.w3.org/2000/svg" viewBox="0 0 318.14 67.38"><g data-name="レイヤー 2"><g data-name="Layer 1"><path d="M0 20.2h22.66v6.66H15v40H7.66v-40H0zM33.19 66.85h-7.33V20.2h7.33v20h8.33v-20H49v46.65h-7.48v-20h-8.33zM61.65 39.86h10.06v6.66H61.65v13.67h12.66v6.66h-20V20.2h20v6.66H61.65zM110.9 31.73v6.06c0 7.47-3.6 11.53-10.93 11.53H96.5v17.53h-7.33V20.2H100c7.3 0 10.9 4.06 10.9 11.53zm-14.4-4.87v15.8h3.5c2.33 0 3.6-1.07 3.6-4.4v-7c0-3.33-1.27-4.4-3.6-4.4zM114.29 20.2h7.34v46.65h-7.34zM138 40.86h10.27v14.79c0 7.47-3.73 11.73-10.93 11.73s-10.93-4.26-10.93-11.73V31.39c0-7.46 3.73-11.73 10.93-11.73s10.93 4.27 10.93 11.73v4.54h-6.93v-5c0-3.34-1.47-4.6-3.8-4.6s-3.8 1.26-3.8 4.6v25.19c0 3.33 1.46 4.53 3.8 4.53s3.8-1.2 3.8-4.53v-8.6H138zM218.26 20.73h7.33v40h12.07v6.66h-19.4zM264.58 67.38h-7.4l-1.26-8.46h-9l-1.27 8.46h-6.73l7.46-46.65h10.74zm-16.73-14.79h7.07L251.38 29zM268 20.73h11.6c7.33 0 10.92 4.07 10.92 11.53v23.59c0 7.47-3.59 11.53-10.92 11.53H268zm7.33 6.66v33.33h4.13c2.33 0 3.73-1.2 3.73-4.53V31.93c0-3.33-1.4-4.54-3.73-4.54zM301.54 51.92l-9.26-31.19H300L305.54 42l5.6-21.26h7l-9.26 31.19v15.45h-7.34zM167.76 59.78h-.7a2.29 2.29 0 0 0-.92.14 1.06 1.06 0 0 0-.5.54 2.41 2.41 0 0 0-.24.95h-.7V59h8.36v2.37h-.7a2.52 2.52 0 0 0-.55-1.29 1.6 1.6 0 0 0-1.14-.34H170v5.9a1.25 1.25 0 0 0 .19.8 1.09 1.09 0 0 0 .82.22h.21v.68h-4.61v-.64h.2a1 1 0 0 0 .81-.23 1.24 1.24 0 0 0 .19-.79zM180.32 63.38v2.3a1.15 1.15 0 0 0 .21.8 1.18 1.18 0 0 0 .87.22v.68h-4.35v-.68a1.4 1.4 0 0 0 .88-.2 1.17 1.17 0 0 0 .21-.82v-4.94a1.15 1.15 0 0 0-.2-.8 1.24 1.24 0 0 0-.89-.22V59h4.35v.68a1.26 1.26 0 0 0-.86.21 1.11 1.11 0 0 0-.22.81v1.87h3.43v-1.83a1.19 1.19 0 0 0-.2-.8 1.17 1.17 0 0 0-.86-.22V59H187v.68a1.4 1.4 0 0 0-.88.2 1.12 1.12 0 0 0-.22.82v4.94a1.16 1.16 0 0 0 .21.81 1.32 1.32 0 0 0 .89.21v.68h-4.34v-.64a.83.83 0 0 0 1.06-1v-2.3zM194.25 63.4v2.06a3.06 3.06 0 0 0 .06.77.61.61 0 0 0 .37.3 2.48 2.48 0 0 0 .9.12 2.65 2.65 0 0 0 1.2-.2 1.82 1.82 0 0 0 .69-.71 4.09 4.09 0 0 0 .44-1.09h.68l-.05 2.73h-7.63v-.68h.15a1 1 0 0 0 .81-.23 1.24 1.24 0 0 0 .19-.79v-5a1.25 1.25 0 0 0-.19-.8 1.08 1.08 0 0 0-.81-.22h-.15V59H198l.12 2.16h-.68a3.46 3.46 0 0 0-.41-.9 1.24 1.24 0 0 0-.46-.44 2.42 2.42 0 0 0-.78-.09h-1.56v2.88h.77a1 1 0 0 0 .74-.21 1.43 1.43 0 0 0 .21-.82h.7v2.83H196v-.12a1.34 1.34 0 0 0-.15-.64c-.11-.2-.36-.29-.78-.29z"/><path d="M198.25 25.6a3.41 3.41 0 0 0 2.15-2 3.18 3.18 0 0 0 2.27-1.71c.35-.89-.3-1.06-1-.49s-.93.51-.93.51a3.24 3.24 0 0 0-.81-2.7 2.49 2.49 0 0 0-4 2.93 2.4 2.4 0 0 0 1.88 1.15c.27 0-1 .62-2 .39-2.49-.57-9.12-1.58-13.71 2.63a8.4 8.4 0 0 0-3.07 6.16c0 3.4 3.82 6 8.15 3.9 2.09-1 2.87-3.54 1.82-5.06-.81-1.17-4.13-1.05-3.6 2.15.47 2.81-2.14 1.7-2.42-.31-.77-5.71 4.62-7.87 7.05-8 3.14-.15 5.41.74 7 3s2.5 7.07 2.5 10.86c0 14-11.38 16.08-16.86 16.09s-15.82-3.1-15.84-16.05c0-8.68 5.47-17 13.77-17.15h1.4q1.32 0 1.32-.93c0-.62-.41-.94-1.24-.94h-2.1a4.49 4.49 0 0 1-3.77-1.9 8 8 0 0 1-1.45-4.94 8 8 0 0 1 1.63-5.21 5.15 5.15 0 0 1 4.19-2 4.9 4.9 0 0 1 3.62 1.51 4.85 4.85 0 0 1 1.52 3.53c0 1.09-.21 1.64-.63 1.64-.16 0-.27-.21-.32-.62a1.44 1.44 0 0 0-1.35-1.04c-1.21 0-1.82.65-1.82 1.94a2.68 2.68 0 0 0 .9 2 3 3 0 0 0 2.14.86 2.93 2.93 0 0 0 2.41-1.21 4.9 4.9 0 0 0 .93-3.07 7.28 7.28 0 0 0-2.06-5.33 6.69 6.69 0 0 0-2.76-1.68h.1l-7.46-1.89A18.58 18.58 0 0 0 171 .09c-2.07-.52-1.4 1.41-.61 2.48s1.84 2.22 1.88 3.34.57 1.39.28 1.54-5.57 4.14-7.48 3.86-2.48-.41-2.35.79-.35 2.58.67 2.78 1.47 1.43 6.17 1.1c0 0-1.48.43-2.19.54s-2.4.16-2.4.16-.21 1.32 2.68 1.32c2.08 0 1.87 2 6.08 2h1.77a11.8 11.8 0 0 0 1.29 1c-2 .52-14.82 5.55-14.83 18.24 0 15.72 15.34 18.06 20.79 18.06s21.2-1.76 21.18-18.12c-.02-10.47-5.93-13.54-5.68-13.58zm-1-4.92a.9.9 0 0 1 1.36-.67c.89.55.28 2 .28 2-.68-.01-1.62-.4-1.62-1.33z" fill="#ed7473"/></g></g></svg>