<svg id="ico_insta.svg" xmlns="http://www.w3.org/2000/svg" width="96" height="96" viewBox="0 0 96 96">
  <defs>
    <style>
      .cls-1 {
        fill: #ed7473;
      }

      .cls-2 {
        fill: #fff;
        fill-rule: evenodd;
      }
    </style>
  </defs>
  <circle id="楕円形_3" data-name="楕円形 3" class="cls-1" cx="48" cy="48" r="48"/>
  <path id="シェイプ_4" data-name="シェイプ 4" class="cls-2" d="M2447.49,9144.33c4.94,0,5.53.02,7.48,0.1a10.481,10.481,0,0,1,3.43.64,6.2,6.2,0,0,1,3.52,3.51,10.421,10.421,0,0,1,.63,3.44c0.09,1.95.11,2.54,0.11,7.48s-0.02,5.53-.11,7.48a10.285,10.285,0,0,1-.63,3.43,6.181,6.181,0,0,1-3.52,3.52,10.285,10.285,0,0,1-3.43.63c-1.95.09-2.54,0.11-7.48,0.11s-5.52-.02-7.47-0.11a10.3,10.3,0,0,1-3.44-.63,6.127,6.127,0,0,1-3.51-3.52,10.481,10.481,0,0,1-.64-3.43c-0.09-1.95-.11-2.54-0.11-7.48s0.02-5.53.11-7.48a10.622,10.622,0,0,1,.64-3.44,6.148,6.148,0,0,1,3.51-3.51,10.5,10.5,0,0,1,3.44-.64c1.95-.08,2.53-0.1,7.47-0.1m0-3.34c-5.02,0-5.65.02-7.63,0.11a13.838,13.838,0,0,0-4.49.86,9.208,9.208,0,0,0-3.27,2.14,9.026,9.026,0,0,0-2.14,3.28,13.726,13.726,0,0,0-.86,4.49c-0.09,1.97-.11,2.6-0.11,7.63s0.02,5.66.11,7.63a13.782,13.782,0,0,0,.86,4.49,9.48,9.48,0,0,0,5.41,5.41,13.576,13.576,0,0,0,4.49.86c1.98,0.1,2.61.12,7.63,0.12s5.66-.02,7.63-0.12a13.522,13.522,0,0,0,4.49-.86,9.4,9.4,0,0,0,5.41-5.41,13.522,13.522,0,0,0,.86-4.49c0.09-1.97.11-2.6,0.11-7.63s-0.02-5.66-.11-7.63a13.469,13.469,0,0,0-.86-4.49,9,9,0,0,0-2.13-3.28,9.157,9.157,0,0,0-3.28-2.14,13.782,13.782,0,0,0-4.49-.86c-1.97-.09-2.6-0.11-7.63-0.11h0Zm0,9.01a9.5,9.5,0,1,0,9.5,9.5A9.5,9.5,0,0,0,2447.49,9150Zm0,15.67a6.17,6.17,0,1,1,6.17-6.17A6.165,6.165,0,0,1,2447.49,9165.67Zm12.1-16.05a2.22,2.22,0,1,1-2.22-2.22A2.215,2.215,0,0,1,2459.59,9149.62Z" transform="translate(-2399 -9110)"/>
</svg>
