<svg xmlns="http://www.w3.org/2000/svg" viewBox="0 0 130.7 45"><defs><style>.cls-1{fill:#fff;}</style></defs><title>header_logo</title><g id="レイヤー_2" data-name="レイヤー 2"><g id="レイヤー_1-2" data-name="レイヤー 1"><path class="cls-1" d="M44.2,21.36V0H22.85A29.13,29.13,0,0,1,44.2,21.36Z"/><path class="cls-1" d="M0,22.85V44.2H21.36A29.13,29.13,0,0,1,0,22.85Z"/><path class="cls-1" d="M119.07,24.93a5.26,5.26,0,0,1,4.63-.36c3,1.18,6,4.62,7,8.53V23.74h-7.24a12.64,12.64,0,0,0-3.87.43A10.78,10.78,0,0,0,114.67,27a9.81,9.81,0,0,0-2.82,6,10.52,10.52,0,0,0,1.3,6.66,10.23,10.23,0,0,0,5.16,4.52,10.61,10.61,0,0,0,5.9.55,7.67,7.67,0,0,0,6.2-5.06,6.4,6.4,0,0,0,.29-1,5.74,5.74,0,0,1-2,2.07,7,7,0,0,1-5.94.46,8.28,8.28,0,0,1-5-4.52,11.91,11.91,0,0,1-1.13-4.22,11.54,11.54,0,0,1,.57-5.15A4.52,4.52,0,0,1,119.07,24.93Z"/><path class="cls-1" d="M110.84,35.38a6.54,6.54,0,0,0-2.72-2.67A17.81,17.81,0,0,0,103.54,31a13.65,13.65,0,0,1-3-1,3.66,3.66,0,0,1-2-2.43,2.52,2.52,0,0,1,1.93-3.33,7,7,0,0,1,3,0c2.47.6,5.46,3.69,6.32,7.24V23.74h-7.36a8.3,8.3,0,0,0-3.81.73,5.45,5.45,0,0,0-2.75,2.39,6.71,6.71,0,0,0-.71,3.68,5.39,5.39,0,0,0,1.51,3.64,7.77,7.77,0,0,0,3,1.94c1.25.48,2.54.86,3.82,1.29a13.1,13.1,0,0,1,3.78,1.83,3.18,3.18,0,0,1,1.46,2.91c-.17,1.89-3.15,2.25-4.74,1.75A14,14,0,0,1,94.75,34V44.31a3.76,3.76,0,0,1-2.87-3.89c0-2.93,0-6.22,0-9.16,0-1.27,0-2.54,0-3.8a3.46,3.46,0,0,1,1.74-3.06,11.69,11.69,0,0,1,1.54-.66h-6a3,3,0,0,0-2.72,2.32c-.77,2.39-1.56,4.85-2.32,7.19-.58,1.68-1.87,3.27-3,1s-2.42-5.47-3.54-8a3.81,3.81,0,0,0-3.37-2.49H57.91a11.69,11.69,0,0,1,1.54.66,3.46,3.46,0,0,1,1.74,3.06c.05,1.26,0,2.53,0,3.8v2.23H54V31.26c0-1.27,0-2.54,0-3.8A3.47,3.47,0,0,1,55.8,24.4a12.18,12.18,0,0,1,1.53-.66H45.46A11.69,11.69,0,0,1,47,24.4a3.49,3.49,0,0,1,1.75,3.06c0,1.26,0,2.53,0,3.8,0,2.94,0,6.23,0,9.16a3.8,3.8,0,0,1-3.17,4H57.21a3.8,3.8,0,0,1-3.16-4c0-2.05,0-4.29,0-6.46h7.19c0,2.17,0,4.41,0,6.46a3.81,3.81,0,0,1-3.17,4H69.62a3.81,3.81,0,0,1-3.17-4c0-2.93,0-6.22,0-9.16,0-1.27,0-2.54,0-3.8h0a3.39,3.39,0,0,1,3-3.57c1.46,0,3.18,2.5,3.35,4.23V40.86a3.76,3.76,0,0,1-3.15,3.54h6.78a3.76,3.76,0,0,1-3.15-3.54V28.5c.86,1.86,7.29,15.77,7.61,16.5h0v0L86.57,27.4v2.7c0,3.78,0,9.75,0,10.62a1.69,1.69,0,0,1,0,.23A3.76,3.76,0,0,1,83.4,44.4h22.41A5.1,5.1,0,0,0,111,40.93a8.84,8.84,0,0,0,.46-3.38A5.3,5.3,0,0,0,110.84,35.38Z"/></g></g></svg>