<svg 
 xmlns="http://www.w3.org/2000/svg"
 xmlns:xlink="http://www.w3.org/1999/xlink"
 width="419px" height="59px">
<path fill-rule="evenodd"  fill="rgb(255, 255, 255)"
 d="M417.167,42.128 L410.287,42.128 L409.007,0.847 L418.447,0.847 L417.167,42.128 ZM390.287,42.128 L389.007,0.847 L398.447,0.847 L397.167,42.128 L390.287,42.128 ZM364.327,58.769 C353.207,58.769 348.727,53.489 348.727,40.528 L348.727,18.288 C348.727,5.328 353.207,0.047 364.327,0.047 C375.367,0.047 379.927,5.328 379.927,18.288 L379.927,40.528 C379.927,53.489 375.447,58.769 364.327,58.769 ZM371.127,19.088 C371.127,10.288 369.367,7.248 364.327,7.248 C359.287,7.248 357.527,10.288 357.527,19.088 L357.527,39.728 C357.527,48.529 359.287,51.569 364.327,51.569 C369.367,51.569 371.127,48.529 371.127,39.728 L371.127,19.088 ZM332.367,57.969 L323.567,57.969 L323.567,37.888 L310.367,0.847 L319.647,0.847 L327.967,27.088 L336.367,0.847 L345.567,0.847 L332.367,37.888 L332.367,57.969 ZM298.087,57.969 L287.927,31.808 L284.567,38.048 L284.567,57.969 L275.767,57.969 L275.767,0.847 L284.567,0.847 L284.567,24.768 L297.607,0.847 L307.127,0.847 L293.127,24.448 L307.687,57.969 L298.087,57.969 ZM251.327,58.769 C240.207,58.769 235.727,53.489 235.727,40.528 L235.727,18.288 C235.727,5.328 240.207,0.047 251.327,0.047 C262.367,0.047 266.927,5.328 266.927,18.288 L266.927,40.528 C266.927,53.489 262.447,58.769 251.327,58.769 ZM258.127,19.088 C258.127,10.288 256.367,7.248 251.327,7.248 C246.287,7.248 244.527,10.288 244.527,19.088 L244.527,39.728 C244.527,48.529 246.287,51.569 251.327,51.569 C256.367,51.569 258.127,48.529 258.127,39.728 L258.127,19.088 ZM220.087,57.969 L211.287,57.969 L211.287,8.128 L201.287,8.128 L201.287,0.847 L230.087,0.847 L230.087,8.128 L220.087,8.128 L220.087,57.969 ZM177.007,46.128 L162.767,46.128 L160.207,57.969 L150.687,57.969 L166.207,0.847 L173.567,0.847 L189.007,57.969 L179.487,57.969 L177.007,46.128 ZM169.887,13.008 L164.287,39.008 L175.407,39.008 L169.887,13.008 ZM135.727,32.768 L123.487,32.768 L123.487,57.969 L114.687,57.969 L114.687,0.847 L123.487,0.847 L123.487,25.488 L135.727,25.488 L135.727,0.847 L144.527,0.847 L144.527,57.969 L135.727,57.969 L135.727,32.768 ZM90.327,58.769 C79.207,58.769 74.727,53.489 74.727,40.528 L74.727,18.288 C74.727,5.328 79.207,0.047 90.327,0.047 C101.367,0.047 105.927,5.328 105.927,18.288 L105.927,40.528 C105.927,53.489 101.447,58.769 90.327,58.769 ZM97.127,19.088 C97.127,10.288 95.367,7.248 90.327,7.248 C85.287,7.248 83.527,10.288 83.527,19.088 L83.527,39.728 C83.527,48.529 85.287,51.569 90.327,51.569 C95.367,51.569 97.127,48.529 97.127,39.728 L97.127,19.088 ZM42.687,0.847 L51.487,0.847 L51.487,50.689 L69.087,50.689 L69.087,57.969 L42.687,57.969 L42.687,0.847 ZM27.007,46.128 L12.767,46.128 L10.207,57.969 L0.687,57.969 L16.207,0.847 L23.567,0.847 L39.007,57.969 L29.487,57.969 L27.007,46.128 ZM19.887,13.008 L14.287,39.008 L25.407,39.008 L19.887,13.008 ZM397.967,57.969 L389.567,57.969 L389.567,48.689 L397.967,48.689 L397.967,57.969 ZM417.967,57.969 L409.567,57.969 L409.567,48.689 L417.967,48.689 L417.967,57.969 Z"/>
</svg>