<svg xmlns="http://www.w3.org/2000/svg" viewBox="0 0 164.87 142.87"><defs><style>.cls-1{fill:#040000;}</style></defs><title>service_icon_01</title><g id="レイヤー_2" data-name="レイヤー 2"><g id="レイヤー_3" data-name="レイヤー 3"><path class="cls-1" d="M71.64,8.27,41.14.09,33,30.6A43.09,43.09,0,0,1,71.64,8.27Z"/><path class="cls-1" d="M22.33,49.1,0,71.44,22.33,93.77A43.14,43.14,0,0,1,22.33,49.1Z"/><path class="cls-1" d="M33.12,112.37l8.18,30.5,30.5-8.17A43.11,43.11,0,0,1,33.12,112.37Z"/><path class="cls-1" d="M93.23,134.6l30.5,8.18,8.17-30.51A43.07,43.07,0,0,1,93.23,134.6Z"/><path class="cls-1" d="M142.54,93.67l22.33-22.33L142.54,49A43.12,43.12,0,0,1,142.54,93.67Z"/><path class="cls-1" d="M131.74,30.51,123.57,0,93.06,8.17A43.1,43.1,0,0,1,131.74,30.51Z"/></g></g></svg>