<?xml version="1.0" encoding="utf-8"?>
<!-- Generator: Adobe Illustrator 22.1.0, SVG Export Plug-In . SVG Version: 6.00 Build 0)  -->
<svg version="1.1" id="レイヤー_1" xmlns="http://www.w3.org/2000/svg" xmlns:xlink="http://www.w3.org/1999/xlink" x="0px"
	 y="0px" viewBox="0 0 164.9 142.9" style="enable-background:new 0 0 164.9 142.9;" xml:space="preserve">
<style type="text/css">
	.st0{fill:#FFFFFF;}
</style>
<title>service_icon_01</title>
<g id="レイヤー_2_1_">
	<g id="レイヤー_3">
		<path class="st0" d="M71.6,8.3L41.1,0.1L33,30.6C40.7,16.5,55.6,7.9,71.6,8.3z"/>
		<path class="st0" d="M22.3,49.1L0,71.4l22.3,22.3C14,80,14,62.8,22.3,49.1z"/>
		<path class="st0" d="M33.1,112.4l8.2,30.5l30.5-8.2C55.8,135,40.9,126.4,33.1,112.4z"/>
		<path class="st0" d="M93.2,134.6l30.5,8.2l8.2-30.5C124.2,126.3,109.3,134.9,93.2,134.6z"/>
		<path class="st0" d="M142.5,93.7l22.3-22.3L142.5,49C150.9,62.7,150.9,79.9,142.5,93.7z"/>
		<path class="st0" d="M131.7,30.5L123.6,0L93.1,8.2C109.1,7.8,124,16.4,131.7,30.5z"/>
	</g>
</g>
</svg>
